<?xml version="1.0" standalone="no"?>
<!DOCTYPE svg PUBLIC "-//W3C//DTD SVG 20010904//EN"
 "http://www.w3.org/TR/2001/REC-SVG-20010904/DTD/svg10.dtd">
<svg version="1.0" xmlns="http://www.w3.org/2000/svg"
 width="511.000000pt" height="469.000000pt" viewBox="0 0 511.000000 469.000000"
 preserveAspectRatio="xMidYMid meet">

<g transform="translate(0.000000,469.000000) scale(0.100000,-0.100000)"
fill="#000000" stroke="none">
<path d="M1842 3919 c-2 -759 -1 -742 -81 -914 l-37 -80 -23 100 c-31 138 -58
219 -98 297 -55 107 -48 103 -226 89 -191 -15 -496 -52 -790 -97 -125 -19
-232 -34 -237 -34 -6 0 -10 -5 -10 -11 0 -6 8 -8 18 -5 29 9 558 84 747 106
296 34 417 40 436 23 47 -40 108 -201 148 -386 33 -152 34 -150 -274 -217
-132 -28 -247 -53 -255 -55 -12 -4 -14 -18 -12 -69 3 -55 1 -65 -15 -70 -10
-3 -129 -24 -263 -45 -489 -78 -695 -112 -699 -117 -13 -12 27 -8 270 32 l267
44 90 -93 c148 -152 221 -241 209 -253 -2 -3 -144 -32 -313 -64 -593 -114
-644 -124 -644 -132 0 -5 10 -6 23 -3 20 5 340 66 753 144 88 17 166 31 172
31 14 0 16 -144 6 -326 l-7 -110 -221 -49 c-397 -87 -428 -94 -434 -100 -12
-12 42 -1 463 90 241 53 439 94 440 93 2 -2 15 -51 29 -111 14 -59 51 -184 82
-277 31 -94 55 -172 53 -174 -2 -2 -191 -52 -419 -111 -688 -178 -730 -189
-730 -198 0 -5 9 -6 19 -2 67 21 1560 405 1575 405 24 0 476 -142 565 -178 72
-29 71 -30 -44 -62 -95 -26 -97 -28 -88 -44 15 -25 256 -216 281 -223 29 -7
633 185 639 204 6 17 -234 223 -260 223 -12 0 -37 -4 -56 -10 -31 -9 -37 -6
-79 30 -54 48 -76 50 -222 19 -80 -16 -104 -18 -122 -8 -43 22 -228 144 -228
150 0 3 19 10 43 16 37 9 1336 348 2022 527 132 35 368 96 525 137 156 41 277
75 268 77 -17 3 -113 -22 -1408 -359 -399 -104 -739 -192 -756 -195 -26 -5
-34 -1 -49 22 -26 41 -45 120 -45 197 0 37 2 67 5 67 3 0 69 -32 146 -71 77
-38 145 -69 150 -67 5 2 -60 38 -145 81 l-153 79 13 81 c23 137 34 239 34 299
0 32 4 58 8 58 5 0 62 -24 128 -53 94 -42 120 -57 122 -75 5 -33 54 -68 147
-103 l85 -32 2 -161 2 -161 3 158 4 157 49 0 c27 0 52 5 55 10 3 6 26 10 51
10 97 0 165 72 149 156 -8 47 -84 126 -317 331 -105 92 -207 182 -227 200
l-36 31 22 69 c36 115 36 119 8 167 -25 43 -27 44 -91 51 l-66 7 5 36 c2 21
12 73 22 117 46 208 -42 575 -167 696 -57 55 -192 155 -248 184 -75 38 -148
55 -240 55 -145 0 -260 -47 -344 -141 -98 -109 -133 -230 -146 -509 -5 -107
-11 -197 -12 -200 -2 -3 -5 283 -8 635 l-5 640 -3 -676z m614 223 c9 -5 -25
-8 -83 -8 -92 1 -102 -1 -168 -33 -131 -64 -234 -196 -263 -336 -6 -27 -13
-122 -17 -210 -3 -88 -11 -200 -17 -250 -11 -92 -47 -230 -55 -208 -3 7 2 34
11 60 24 73 35 169 45 393 10 228 24 288 85 385 91 141 247 231 384 220 34 -2
69 -8 78 -13z m115 -61 c13 -11 22 -22 19 -25 -3 -3 -19 6 -35 19 -17 13 -25
24 -19 25 7 0 22 -9 35 -19z m46 -61 c54 -24 103 -97 102 -149 -1 -35 -1 -35
-14 13 -20 71 -73 122 -142 136 -44 9 -69 9 -130 -4 -131 -27 -221 -85 -285
-185 -15 -25 -28 -38 -28 -30 0 26 55 103 96 136 118 92 299 130 401 83z m54
-210 c32 -9 37 -15 56 -77 23 -71 43 -170 43 -210 0 -22 -1 -22 -18 -5 -11 9
-17 21 -14 25 7 14 -30 47 -52 47 -25 0 -66 -26 -66 -42 0 -24 -42 -98 -56
-98 -7 0 -20 13 -29 30 -18 35 -43 50 -85 50 -44 0 -67 -15 -90 -58 l-21 -37
5 65 c6 77 36 170 73 222 55 80 157 115 254 88z m149 -92 c66 -80 132 -205
148 -283 19 -88 24 -133 14 -139 -5 -3 -12 23 -16 58 -13 126 -74 259 -167
360 -33 35 -59 67 -59 70 0 20 27 -3 80 -66z m-774 -279 c-61 -305 -84 -387
-129 -473 -31 -59 -137 -176 -159 -176 -6 0 18 30 53 68 118 122 137 173 215
567 31 154 58 284 61 288 16 27 8 -29 -41 -274z m647 114 c-7 -2 -19 -2 -25 0
-7 3 -2 5 12 5 14 0 19 -2 13 -5z m47 -43 c28 -28 27 -93 -2 -120 -31 -28 -83
-26 -113 5 -52 51 -17 135 56 135 26 0 46 -7 59 -20z m-227 -21 c26 -32 22
-85 -9 -116 -49 -49 -134 -10 -134 61 0 76 95 112 143 55z m57 -74 c0 -14 7
-42 15 -62 8 -19 15 -37 15 -39 0 -2 -17 -4 -37 -4 -27 0 -34 -3 -26 -11 15
-15 83 -3 83 14 0 7 -7 21 -15 31 -8 11 -15 31 -15 45 1 23 2 24 11 8 23 -40
77 -53 133 -31 36 14 -58 -181 -125 -259 -87 -101 -113 -99 -317 31 -10 7 -8
26 13 96 14 49 25 102 26 120 0 17 4 40 8 51 7 18 9 17 25 -12 20 -39 43 -53
91 -53 41 0 80 32 91 74 8 33 24 34 24 1z m414 -212 c-10 -58 -25 -65 -22 -10
2 30 8 47 16 47 9 0 11 -10 6 -37z m-689 -83 c3 -5 35 -26 71 -46 64 -36 66
-38 59 -68 -14 -63 -17 -144 -6 -150 7 -5 11 5 12 26 l1 33 15 -35 c36 -84 55
-308 37 -443 l-7 -46 -114 227 c-122 243 -153 314 -153 349 0 12 9 43 21 70
11 26 25 58 30 71 9 23 24 29 34 12z m681 -52 c-3 -24 -11 -90 -17 -148 -6
-57 -15 -112 -20 -122 -13 -24 -40 -29 -138 -26 -110 4 -116 12 -131 163 -6
61 -13 125 -16 143 l-5 32 166 0 166 0 -5 -42z m120 -14 c28 -5 37 -29 18 -49
-17 -17 -119 -22 -128 -6 -3 5 -3 23 0 40 6 30 8 31 48 25 22 -3 51 -7 62 -10z
m54 -90 l0 -36 -77 7 c-43 4 -79 8 -81 10 -1 1 0 10 4 19 5 12 20 16 64 16 33
0 62 5 65 10 13 21 25 9 25 -26z m-950 -32 c0 -10 35 -88 77 -173 115 -227
122 -248 62 -164 -18 25 -37 45 -43 45 -5 0 -24 -13 -41 -30 l-30 -29 -43 97
c-42 96 -68 140 -76 131 -3 -2 14 -42 38 -89 23 -47 49 -105 59 -130 l17 -44
39 38 39 38 32 -45 c18 -25 38 -43 44 -41 8 3 31 -35 61 -98 42 -91 49 -100
55 -78 5 14 8 62 9 108 1 45 5 82 10 82 6 0 13 21 16 48 13 97 10 93 65 86 33
-4 50 -3 50 4 0 10 -47 143 -65 185 -8 18 0 18 65 1 9 -2 21 -24 28 -49 17
-63 48 -77 160 -73 80 3 88 1 105 -19 10 -13 35 -27 56 -33 35 -9 47 -23 131
-150 l93 -140 -31 -68 c-17 -37 -32 -77 -34 -88 -3 -21 -9 -19 -128 33 -69 30
-126 55 -127 57 -2 1 6 70 16 152 10 82 17 151 15 153 -10 11 -16 -14 -27
-105 l-11 -99 -8 64 c-14 120 -17 85 -11 -124 5 -195 4 -223 -22 -390 -25
-160 -26 -189 -17 -262 6 -45 20 -100 32 -123 12 -23 20 -43 18 -45 -2 -1
-152 -42 -334 -90 l-332 -88 -101 69 c-97 67 -100 70 -95 100 6 35 -21 174
-42 216 -8 14 -19 28 -25 30 -8 3 -9 29 -1 99 10 94 11 97 66 169 73 97 143
240 117 240 -5 0 -12 -13 -16 -30 -11 -49 -155 -275 -155 -243 0 5 14 47 31
94 61 163 109 337 86 308 -2 -2 -26 -73 -53 -158 l-49 -154 -1 234 c0 185 -3
244 -16 281 l-16 47 87 79 c48 44 102 103 121 131 37 54 50 62 50 33z m311
-23 c14 -6 36 -27 48 -49 20 -36 61 -143 61 -161 0 -4 -17 -3 -37 2 -57 13
-63 11 -63 -18 0 -16 -5 -35 -10 -43 -7 -11 -10 4 -10 50 0 56 -21 160 -46
224 -6 16 -4 18 12 12 10 -5 31 -12 45 -17z m622 2 c4 -4 2 -22 -4 -40 -10
-28 -15 -31 -38 -27 -14 3 -48 8 -74 12 -43 6 -48 9 -43 28 3 11 6 27 6 34 0
9 18 11 73 6 39 -4 75 -10 80 -13z m-70 -76 c26 -4 47 -9 47 -11 0 -2 -5 -14
-11 -27 -11 -25 -11 -25 -72 -11 -34 8 -63 16 -65 19 -2 2 -1 13 3 25 5 16 13
20 28 17 12 -3 43 -9 70 -12z m-1465 -78 c-87 -77 -128 -175 -128 -306 0 -97
19 -163 69 -238 38 -56 44 -72 22 -59 -21 13 -82 130 -96 184 -40 154 9 334
117 426 23 20 44 33 47 30 3 -3 -11 -20 -31 -37z m1407 20 c11 -3 33 -8 49
-12 l29 -6 -23 -25 c-27 -28 -65 -31 -98 -8 -33 23 -28 70 7 60 9 -2 25 -7 36
-9z m174 -63 c152 -129 431 -385 467 -429 53 -66 54 -113 2 -160 -48 -44 -96
-53 -145 -28 -60 31 -180 176 -326 394 l-135 202 31 39 c18 21 34 38 36 38 2
0 34 -25 70 -56z m-1499 27 c0 -11 -59 -36 -66 -28 -3 3 7 12 23 21 33 18 43
19 43 7z m226 -33 c59 -58 73 -356 35 -712 -12 -104 -22 -190 -23 -192 -2 -1
-70 -18 -153 -37 -82 -20 -159 -39 -169 -43 -19 -7 -19 -2 -13 186 19 529 69
758 180 814 44 23 112 15 143 -16z m-740 -268 c6 -74 14 -160 18 -191 l7 -55
-79 -15 -80 -15 -15 25 c-20 34 -90 115 -193 225 -46 48 -84 91 -84 95 0 8
353 69 390 67 25 -1 25 -2 36 -136z m2137 -155 c41 -55 100 -124 132 -154 63
-60 61 -76 -10 -65 -62 10 -197 61 -230 88 -26 21 -30 30 -28 73 1 42 48 173
57 162 2 -2 37 -49 79 -104z m-2109 -147 c15 -112 38 -288 43 -333 l5 -50 -93
-19 c-51 -10 -102 -21 -113 -24 -19 -5 -19 -1 -13 213 4 120 8 220 10 222 3 2
104 24 149 32 4 0 9 -18 12 -41z m761 -371 c25 -39 50 -180 39 -224 -8 -35
-14 -40 -64 -56 -78 -26 -314 -97 -322 -97 -11 0 -35 80 -52 174 -25 133 -25
133 237 192 61 14 114 27 116 30 11 11 32 2 46 -19z m127 -309 c145 -103 370
-248 395 -254 14 -4 78 3 142 16 111 21 119 21 149 6 42 -22 40 -27 -4 -15
-61 17 -61 4 1 -17 42 -14 65 -28 84 -53 14 -19 21 -32 15 -28 -28 17 -174 66
-174 58 0 -5 35 -21 78 -36 84 -30 142 -61 142 -77 0 -13 -28 -8 -153 26 -55
15 -101 25 -104 22 -3 -2 33 -24 78 -47 102 -52 83 -64 -41 -25 -45 14 -98 26
-118 26 -20 0 -64 12 -97 26 -33 14 -205 72 -383 129 -211 67 -341 114 -377
136 -30 18 -53 34 -52 35 1 1 72 23 157 49 85 26 162 53 170 61 8 8 16 14 17
14 2 0 36 -23 75 -52z m901 -407 c49 -82 -57 -132 -230 -111 -100 13 -156 33
-183 67 -38 49 -8 52 117 12 104 -34 188 -12 103 26 -68 31 -54 34 31 7 70
-22 82 -23 95 -10 12 12 11 18 -11 48 -14 19 -25 36 -25 38 0 13 89 -53 103
-77z"/>
<path d="M2392 3568 c-19 -19 -15 -41 6 -33 31 14 79 17 86 6 10 -16 36 -13
36 4 0 8 -9 19 -19 25 -27 14 -94 13 -109 -2z"/>
<path d="M2654 3465 c-8 -19 2 -45 16 -45 5 0 10 14 10 30 0 31 -16 41 -26 15z"/>
<path d="M2452 3446 c2 -15 8 -26 13 -26 15 0 12 43 -3 48 -10 3 -13 -4 -10
-22z"/>
<path d="M2500 3200 c8 -5 30 -10 49 -10 45 0 37 6 -19 14 -31 4 -40 3 -30 -4z"/>
<path d="M2635 1950 c-17 -18 -132 -98 -208 -144 -39 -24 -27 -32 15 -10 92
47 230 155 216 169 -2 3 -13 -4 -23 -15z"/>
<path d="M4007 4557 c-38 -58 -79 -153 -84 -196 -7 -57 12 -98 62 -138 l35
-28 0 -168 0 -168 -44 36 c-33 27 -45 44 -50 73 -14 89 -87 145 -205 158 -76
8 -76 9 -5 -97 55 -84 93 -109 163 -109 46 0 59 -5 97 -36 42 -35 44 -39 44
-90 l0 -54 -71 0 -71 0 6 -47 c4 -27 10 -64 13 -83 l5 -36 -257 -55 -257 -55
2 -424 c0 -233 3 -426 5 -429 3 -2 5 183 5 412 0 327 3 417 13 416 6 0 80 -24
162 -52 l150 -52 3 -727 c1 -480 6 -728 12 -728 7 0 9 242 8 720 -2 544 0 720
9 720 6 0 90 -27 187 -61 l176 -61 3 -577 2 -576 3 576 2 577 278 67 c152 37
283 70 289 72 10 4 13 -121 16 -588 l2 -594 3 602 2 602 -22 6 c-28 8 -492
172 -530 187 -32 12 -32 15 -14 116 l13 72 -68 0 -69 0 0 38 c0 34 4 40 38 57
22 11 62 19 98 20 46 1 72 8 105 27 50 30 116 94 106 104 -3 4 -42 7 -85 7
-98 1 -136 -18 -169 -86 -20 -39 -63 -77 -88 -77 -3 0 -5 46 -5 103 l0 103 65
47 c55 40 72 47 111 47 82 0 132 37 183 138 l21 42 -48 0 c-27 0 -71 -7 -100
-15 -58 -18 -83 -45 -104 -117 -11 -39 -24 -55 -68 -88 -29 -22 -55 -40 -57
-40 -2 0 -3 35 -3 78 0 71 2 80 23 91 12 6 33 28 46 47 37 54 32 114 -20 219
-22 47 -45 87 -49 90 -4 3 -14 -5 -23 -18z m-87 -1087 l13 -90 87 0 88 0 11
63 c6 35 11 71 11 80 0 9 5 17 12 17 7 0 130 -42 275 -92 178 -63 257 -95 245
-100 -22 -10 -516 -128 -533 -128 -25 0 -700 235 -687 239 16 5 439 98 454
100 7 1 16 -36 24 -89z"/>
<path d="M3654 2726 c-8 -34 4 -68 24 -64 24 5 24 81 0 86 -12 2 -19 -5 -24
-22z"/>
<path d="M3780 2688 c-8 -17 -8 -32 -1 -52 16 -40 36 -27 36 24 0 49 -19 64
-35 28z"/>
<path d="M4411 1856 c-573 -158 -552 -149 -584 -248 -9 -31 -23 -60 -30 -66
-6 -5 -156 -49 -332 -97 -176 -48 -330 -94 -342 -101 -50 -31 -35 -51 193
-250 119 -104 226 -196 238 -206 20 -15 45 -9 550 146 l528 161 169 369 c93
203 169 379 169 391 0 23 -18 46 -34 44 -6 -1 -242 -65 -525 -143z m545 111
c3 -8 -46 -126 -109 -263 -63 -137 -138 -302 -167 -367 -30 -65 -61 -122 -69
-126 -13 -7 -861 -269 -979 -303 -19 -5 -36 -8 -38 -6 -2 2 57 173 132 379 87
241 143 382 157 397 18 17 135 53 527 161 278 77 513 140 523 140 10 1 20 -5
23 -12z m-1184 -507 c-15 -44 -24 -56 -48 -63 -60 -18 -57 -16 -44 -32 7 -8
21 -15 31 -15 12 0 16 -5 13 -15 -4 -8 -10 -12 -15 -9 -6 3 -28 3 -50 -1 -39
-7 -40 -7 -22 -27 13 -14 25 -18 48 -14 29 5 29 5 7 -7 -18 -10 -20 -15 -10
-26 11 -11 9 -11 -11 -1 -24 12 -91 6 -91 -9 0 -23 31 -34 67 -23 21 6 39 9
41 7 3 -3 -3 -7 -12 -10 -9 -3 -23 -7 -32 -10 -16 -5 -16 -7 0 -23 24 -27 20
-40 -14 -47 -30 -7 -38 -19 -20 -30 18 -11 -2 -33 -37 -40 -34 -6 -34 -7 -17
-26 9 -10 25 -19 35 -19 17 0 17 -3 5 -43 -26 -88 -11 -95 -256 119 -124 107
-226 201 -228 208 -6 27 -8 26 593 190 44 12 81 22 82 21 2 -1 -5 -26 -15 -55z"/>
<path d="M4300 1533 c-58 -23 -82 -100 -39 -124 30 -15 87 -4 115 22 24 22 31
63 16 87 -10 14 -69 24 -92 15z"/>
<path d="M3598 1363 c-21 -5 -23 -17 -5 -31 9 -8 24 -8 51 -1 31 9 35 13 25
25 -11 14 -36 16 -71 7z"/>
<path d="M3525 1343 c-45 -10 -48 -12 -34 -29 9 -11 22 -14 48 -9 49 9 55 15
34 31 -10 7 -20 13 -23 13 -3 -1 -14 -3 -25 -6z"/>
<path d="M3417 1316 c-29 -9 -35 -14 -25 -24 6 -6 8 -12 2 -12 -6 0 -15 5 -21
11 -7 7 -23 7 -52 -1 -36 -10 -41 -13 -30 -26 12 -15 53 -14 96 3 11 4 14 2 9
-5 -4 -7 -17 -12 -30 -12 -32 0 -39 -10 -20 -31 12 -14 22 -15 50 -7 19 5 43
8 52 5 9 -2 -2 -7 -25 -11 -48 -9 -53 -17 -20 -34 16 -9 32 -9 56 -2 47 13 51
5 5 -10 l-38 -13 24 -19 c19 -15 34 -18 70 -14 l45 5 -39 -12 c-34 -11 -37
-14 -23 -25 11 -10 29 -12 57 -7 39 7 50 18 30 30 -17 11 1 33 32 39 l31 6
-22 24 c-19 20 -28 23 -48 15 -13 -5 -34 -9 -46 -8 -14 1 -9 5 16 11 20 6 37
14 37 19 0 15 -36 28 -61 23 -50 -12 -52 -13 -39 -29 11 -13 10 -14 -4 -9 -25
10 -19 33 12 40 40 10 44 14 31 31 -9 11 -26 13 -63 9 l-51 -6 39 13 c36 11
37 13 20 28 -16 13 -25 14 -57 5z m39 -84 c-4 -3 -14 2 -24 12 -16 18 -16 18
6 6 13 -6 21 -14 18 -18z m100 -83 c19 -22 19 -22 -3 -10 -24 12 -39 31 -25
31 5 0 17 -10 28 -21z"/>
<path d="M3557 1298 c-26 -9 -27 -11 -12 -28 13 -15 22 -16 56 -8 38 10 39 11
23 29 -19 21 -27 22 -67 7z"/>
<path d="M1895 1061 c-33 -10 -187 -51 -342 -92 -156 -41 -283 -78 -283 -83 0
-4 12 -22 26 -40 l27 -31 -134 -32 c-74 -18 -142 -32 -153 -33 -11 0 -16 -5
-13 -14 3 -7 84 -137 180 -287 303 -476 286 -451 310 -446 12 3 193 40 402 83
209 42 383 80 387 83 4 4 -13 35 -38 71 -32 46 -41 66 -32 71 7 3 90 30 183
60 94 29 174 56 179 60 11 10 -600 643 -622 646 -9 0 -44 -7 -77 -16z m568
-497 c65 -67 115 -124 110 -127 -4 -3 -37 -14 -73 -25 -36 -11 -200 -63 -364
-116 -165 -53 -303 -93 -306 -89 -4 5 -101 125 -215 268 -115 143 -236 293
-268 333 -33 40 -58 74 -56 76 2 2 157 43 344 93 l340 90 185 -191 c101 -105
238 -246 303 -312z m-882 -69 c133 -165 247 -301 254 -303 8 -2 92 22 187 52
95 31 176 56 179 56 8 0 79 -107 79 -118 0 -4 -71 -22 -157 -39 -87 -18 -258
-53 -381 -78 -122 -25 -229 -45 -236 -45 -7 0 -47 53 -88 118 -41 64 -144 224
-227 356 -84 131 -151 239 -149 240 10 7 266 64 280 63 10 -1 122 -132 259
-302z"/>
<path d="M1713 862 c-192 -58 -259 -82 -228 -82 12 0 478 140 484 145 13 14
-56 -3 -256 -63z"/>
<path d="M1809 801 c-248 -74 -264 -79 -257 -86 6 -6 481 134 493 146 14 14 6
12 -236 -60z"/>
<path d="M1871 730 c-221 -66 -262 -80 -231 -80 21 0 464 132 475 141 15 15 1
11 -244 -61z"/>
<path d="M1937 660 c-206 -61 -260 -80 -230 -80 14 0 485 139 491 145 14 14
-54 -3 -261 -65z"/>
<path d="M2035 599 c-126 -38 -236 -69 -242 -69 -7 0 -13 -5 -13 -11 0 -6 8
-8 18 -5 9 3 118 35 242 72 124 36 227 68 229 70 16 15 -31 4 -234 -57z"/>
<path d="M2090 528 c-237 -71 -247 -74 -239 -82 5 -6 485 137 495 147 14 14
-24 4 -256 -65z"/>
<path d="M2156 457 c-131 -39 -233 -73 -227 -75 15 -5 491 134 491 143 0 10
-32 2 -264 -68z"/>
</g>
</svg>
